<mxfile host="app.diagrams.net" modified="2022-08-16T02:06:17.675Z" agent="5.0 (Macintosh; Intel Mac OS X 10_15_7) AppleWebKit/605.1.15 (KHTML, like Gecko) Version/15.6 Safari/605.1.15" etag="dRYOcfm8gz9_InXW-xeT" version="20.2.2" type="github">
  <diagram id="x5m4VUnTAhTG1zSjABzX" name="第 1 页">
    <mxGraphModel dx="666" dy="531" grid="1" gridSize="10" guides="1" tooltips="1" connect="1" arrows="1" fold="1" page="1" pageScale="1" pageWidth="827" pageHeight="1169" math="0" shadow="0">
      <root>
        <mxCell id="0" />
        <mxCell id="1" parent="0" />
        <mxCell id="w9pxnUpCHdR_1Mit5gIL-10" value="" style="rounded=0;whiteSpace=wrap;html=1;direction=south;" vertex="1" parent="1">
          <mxGeometry x="340" y="70" width="170" height="240" as="geometry" />
        </mxCell>
        <mxCell id="69J51jnSXScKdbFiQXBX-2" value="原文" style="rounded=1;whiteSpace=wrap;html=1;" parent="1" vertex="1">
          <mxGeometry x="50" y="90" width="100" height="50" as="geometry" />
        </mxCell>
        <mxCell id="69J51jnSXScKdbFiQXBX-3" value="一次性对称密钥" style="rounded=1;whiteSpace=wrap;html=1;" parent="1" vertex="1">
          <mxGeometry x="50" y="210" width="100" height="50" as="geometry" />
        </mxCell>
        <mxCell id="w9pxnUpCHdR_1Mit5gIL-1" value="密文" style="rounded=1;whiteSpace=wrap;html=1;" vertex="1" parent="1">
          <mxGeometry x="380" y="90" width="100" height="50" as="geometry" />
        </mxCell>
        <mxCell id="w9pxnUpCHdR_1Mit5gIL-2" value="" style="endArrow=classic;html=1;rounded=0;exitX=1;exitY=0.5;exitDx=0;exitDy=0;entryX=0;entryY=0.5;entryDx=0;entryDy=0;" edge="1" parent="1" source="69J51jnSXScKdbFiQXBX-2" target="w9pxnUpCHdR_1Mit5gIL-1">
          <mxGeometry relative="1" as="geometry">
            <mxPoint x="340" y="280" as="sourcePoint" />
            <mxPoint x="440" y="280" as="targetPoint" />
          </mxGeometry>
        </mxCell>
        <mxCell id="w9pxnUpCHdR_1Mit5gIL-3" value="加密" style="edgeLabel;resizable=0;html=1;align=center;verticalAlign=middle;" connectable="0" vertex="1" parent="w9pxnUpCHdR_1Mit5gIL-2">
          <mxGeometry relative="1" as="geometry" />
        </mxCell>
        <mxCell id="w9pxnUpCHdR_1Mit5gIL-11" value="" style="endArrow=classic;html=1;rounded=0;exitX=1;exitY=0.5;exitDx=0;exitDy=0;entryX=0;entryY=0.5;entryDx=0;entryDy=0;" edge="1" parent="1" source="69J51jnSXScKdbFiQXBX-3" target="w9pxnUpCHdR_1Mit5gIL-13">
          <mxGeometry relative="1" as="geometry">
            <mxPoint x="360" y="280" as="sourcePoint" />
            <mxPoint x="460" y="280" as="targetPoint" />
          </mxGeometry>
        </mxCell>
        <mxCell id="w9pxnUpCHdR_1Mit5gIL-12" value="b的公钥加密" style="edgeLabel;resizable=0;html=1;align=center;verticalAlign=middle;fontStyle=1" connectable="0" vertex="1" parent="w9pxnUpCHdR_1Mit5gIL-11">
          <mxGeometry relative="1" as="geometry" />
        </mxCell>
        <mxCell id="w9pxnUpCHdR_1Mit5gIL-13" value="加密后的密钥" style="rounded=1;whiteSpace=wrap;html=1;" vertex="1" parent="1">
          <mxGeometry x="380" y="210" width="105" height="50" as="geometry" />
        </mxCell>
        <mxCell id="w9pxnUpCHdR_1Mit5gIL-14" value="" style="rounded=0;whiteSpace=wrap;html=1;direction=south;" vertex="1" parent="1">
          <mxGeometry x="50" y="400" width="170" height="240" as="geometry" />
        </mxCell>
        <mxCell id="w9pxnUpCHdR_1Mit5gIL-15" value="" style="endArrow=classic;html=1;rounded=0;exitX=1;exitY=0;exitDx=0;exitDy=0;" edge="1" parent="1" source="69J51jnSXScKdbFiQXBX-3">
          <mxGeometry width="50" height="50" relative="1" as="geometry">
            <mxPoint x="320" y="310" as="sourcePoint" />
            <mxPoint x="260" y="130" as="targetPoint" />
          </mxGeometry>
        </mxCell>
        <mxCell id="w9pxnUpCHdR_1Mit5gIL-16" value="" style="endArrow=classic;html=1;rounded=0;exitX=1;exitY=1;exitDx=0;exitDy=0;entryX=0;entryY=0;entryDx=0;entryDy=0;" edge="1" parent="1" source="w9pxnUpCHdR_1Mit5gIL-10" target="w9pxnUpCHdR_1Mit5gIL-14">
          <mxGeometry width="50" height="50" relative="1" as="geometry">
            <mxPoint x="430" y="520" as="sourcePoint" />
            <mxPoint x="480" y="470" as="targetPoint" />
          </mxGeometry>
        </mxCell>
        <mxCell id="w9pxnUpCHdR_1Mit5gIL-17" value="" style="endArrow=none;dashed=1;html=1;dashPattern=1 3;strokeWidth=2;rounded=0;" edge="1" parent="1">
          <mxGeometry width="50" height="50" relative="1" as="geometry">
            <mxPoint x="30" y="350" as="sourcePoint" />
            <mxPoint x="540" y="350" as="targetPoint" />
          </mxGeometry>
        </mxCell>
        <mxCell id="w9pxnUpCHdR_1Mit5gIL-18" value="密文" style="rounded=1;whiteSpace=wrap;html=1;" vertex="1" parent="1">
          <mxGeometry x="85" y="440" width="100" height="50" as="geometry" />
        </mxCell>
        <mxCell id="w9pxnUpCHdR_1Mit5gIL-19" value="加密密钥" style="rounded=1;whiteSpace=wrap;html=1;" vertex="1" parent="1">
          <mxGeometry x="85" y="550" width="105" height="50" as="geometry" />
        </mxCell>
        <mxCell id="w9pxnUpCHdR_1Mit5gIL-20" value="一次性对称密钥" style="rounded=1;whiteSpace=wrap;html=1;" vertex="1" parent="1">
          <mxGeometry x="400" y="550" width="100" height="50" as="geometry" />
        </mxCell>
        <mxCell id="w9pxnUpCHdR_1Mit5gIL-21" value="" style="endArrow=classic;html=1;rounded=0;exitX=1;exitY=0.5;exitDx=0;exitDy=0;entryX=0;entryY=0.5;entryDx=0;entryDy=0;" edge="1" parent="1" source="w9pxnUpCHdR_1Mit5gIL-19" target="w9pxnUpCHdR_1Mit5gIL-20">
          <mxGeometry relative="1" as="geometry">
            <mxPoint x="160.0000000000001" y="245" as="sourcePoint" />
            <mxPoint x="390" y="245" as="targetPoint" />
          </mxGeometry>
        </mxCell>
        <mxCell id="w9pxnUpCHdR_1Mit5gIL-22" value="b的私钥解密" style="edgeLabel;resizable=0;html=1;align=center;verticalAlign=middle;fontStyle=1" connectable="0" vertex="1" parent="w9pxnUpCHdR_1Mit5gIL-21">
          <mxGeometry relative="1" as="geometry">
            <mxPoint as="offset" />
          </mxGeometry>
        </mxCell>
        <mxCell id="w9pxnUpCHdR_1Mit5gIL-24" value="解密" style="endArrow=classic;html=1;rounded=0;exitX=1;exitY=0.5;exitDx=0;exitDy=0;entryX=0;entryY=0.5;entryDx=0;entryDy=0;" edge="1" parent="1" source="w9pxnUpCHdR_1Mit5gIL-18" target="w9pxnUpCHdR_1Mit5gIL-26">
          <mxGeometry relative="1" as="geometry">
            <mxPoint x="280" y="440" as="sourcePoint" />
            <mxPoint x="390" y="460" as="targetPoint" />
          </mxGeometry>
        </mxCell>
        <mxCell id="w9pxnUpCHdR_1Mit5gIL-26" value="原文" style="rounded=1;whiteSpace=wrap;html=1;arcSize=0;" vertex="1" parent="1">
          <mxGeometry x="400" y="440" width="100" height="50" as="geometry" />
        </mxCell>
        <mxCell id="w9pxnUpCHdR_1Mit5gIL-27" value="" style="endArrow=classic;html=1;rounded=0;exitX=0;exitY=0;exitDx=0;exitDy=0;" edge="1" parent="1" source="w9pxnUpCHdR_1Mit5gIL-20">
          <mxGeometry width="50" height="50" relative="1" as="geometry">
            <mxPoint x="250" y="390" as="sourcePoint" />
            <mxPoint x="300" y="480" as="targetPoint" />
          </mxGeometry>
        </mxCell>
      </root>
    </mxGraphModel>
  </diagram>
</mxfile>
